HIERARCHY
ROOT Hips
{
	OFFSET 0.000000 0.000000 0.000000 
	CHANNELS 6 Xposition Yposition Zposition Zrotation Yrotation Xrotation
	JOINT LeftUpLeg
	{
		OFFSET 1.363060 -1.794630 0.839290 
		CHANNELS 3 Zrotation Yrotation Xrotation
		JOINT LeftLeg
		{
			OFFSET 2.448110 -6.726130 0.000000 
			CHANNELS 3 Zrotation Yrotation Xrotation
			JOINT LeftFoot
			{
				OFFSET 2.562200 -7.039590 0.000000 
				CHANNELS 3 Zrotation Yrotation Xrotation
				JOINT LeftToeBase
				{
					OFFSET 0.157640 -0.433110 2.322550 
					CHANNELS 3 Zrotation Yrotation Xrotation
					End Site
					{
						OFFSET 0.000000 0.000000 0.000000 
					}
				}
			}
		}
	}
	JOINT RightUpLeg
	{
		OFFSET -1.305520 -1.794630 0.839290 
		CHANNELS 3 Zrotation Yrotation Xrotation
		JOINT RightLeg
		{
			OFFSET -2.542530 -6.985550 0.000000 
			CHANNELS 3 Zrotation Yrotation Xrotation
			JOINT RightFoot
			{
				OFFSET -2.568260 -7.056230 0.000000 
				CHANNELS 3 Zrotation Yrotation Xrotation
				JOINT RightToeBase
				{
					OFFSET -0.164730 -0.452590 2.363150 
					CHANNELS 3 Zrotation Yrotation Xrotation
					End Site
					{
						OFFSET 0.000000 0.000000 0.000000 
					}
				}
			}
		}
	}
	JOINT Spine
	{
		OFFSET 0.028270 2.035590 -0.193380 
		CHANNELS 3 Zrotation Yrotation Xrotation
		JOINT Spine1
		{
			OFFSET 0.056720 2.048850 -0.042750 
			CHANNELS 3 Zrotation Yrotation Xrotation
			JOINT Neck1
			{
				OFFSET -0.054170 1.746240 0.172020 
				CHANNELS 3 Zrotation Yrotation Xrotation
				JOINT Head
				{
					OFFSET 0.104070 1.761360 -0.123970 
					CHANNELS 3 Zrotation Yrotation Xrotation
					End Site
					{
						OFFSET 0.000000 0.000000 0.000000 
					}
				}
			}
			JOINT LeftArm
			{
				OFFSET 3.362410 1.200890 -0.311210 
				CHANNELS 3 Zrotation Yrotation Xrotation
				JOINT LeftForeArm
				{
					OFFSET 4.983000 -0.000000 -0.000000 
					CHANNELS 3 Zrotation Yrotation Xrotation
					JOINT LeftHand
					{
						OFFSET 3.483560 -0.000000 -0.000000 
						CHANNELS 3 Zrotation Yrotation Xrotation
						JOINT LeftHandIndex1
						{
							OFFSET 0.715260 -0.000000 -0.000000 
							CHANNELS 3 Zrotation Yrotation Xrotation
							End Site
							{
								OFFSET 0.000000 0.000000 0.000000 
							}
						}
					}
				}
			}
			JOINT RightArm
			{
				OFFSET -3.136600 1.374050 -0.404650 
				CHANNELS 3 Zrotation Yrotation Xrotation
				JOINT RightForeArm
				{
					OFFSET -5.241900 -0.000000 -0.000000 
					CHANNELS 3 Zrotation Yrotation Xrotation
					JOINT RightHand
					{
						OFFSET -3.444170 -0.000000 -0.000000 
						CHANNELS 3 Zrotation Yrotation Xrotation
						JOINT RightHandIndex1
						{
							OFFSET -0.622530 -0.000000 -0.000000 
							CHANNELS 3 Zrotation Yrotation Xrotation
							End Site
							{
								OFFSET 0.000000 0.000000 0.000000 
							}
						}
					}
				}
			}
		}
	}
}
MOTION
Frames: 15
Frame Time: 0.041667
0.578348 17.826609 -24.033437 -0.854406 -0.434602 2.264627 -14.112010 -2.835520 -17.107973 2.186572 11.530928 36.452155 2.201164 -3.244782 3.827814 0.324300 -3.660200 -10.122500 14.120583 6.425133 -29.055488 -25.786380 -18.386662 107.770992 0.749371 -6.416907 13.556212 -0.026300 1.047100 -2.878400 -0.269744 -1.562460 4.451600 -0.735639 -0.382842 -9.860682 3.400292 0.746200 -1.430574 0.401600 0.401600 -2.523600 -80.627577 -7.689581 40.755703 123.237279 -60.961093 -91.684236 0.530242 -1.878552 -31.791063 -7.125000 0.000000 0.000000 75.009207 -19.837571 44.168322 -67.655876 57.272384 -52.120786 2.632680 1.006534 2.978696 7.125000 0.000000 0.000000 
0.581786 17.848901 -23.530820 -0.803728 -0.296583 2.379550 -14.290154 -2.667754 -15.478114 2.042650 11.300512 35.857337 1.998255 -2.664829 3.796511 0.540800 -4.711700 -13.088000 13.765077 7.085397 -31.333598 -25.674108 -18.629305 107.248731 0.451469 -5.395243 15.750886 -0.096600 -2.004900 5.519100 -0.522139 -1.865519 4.901890 -1.001216 -0.607108 -9.181070 3.455978 0.804353 -0.637305 0.337300 0.435900 -1.889000 -80.369793 -10.811295 40.996513 123.518796 -60.753672 -91.902182 0.530558 -1.875003 -32.116855 -7.125000 0.000000 0.000000 75.664320 -19.653146 43.206020 -67.380727 57.127704 -51.856190 2.632740 1.026760 2.859848 7.125000 0.000000 0.000000 
0.586369 17.891507 -23.027474 -0.526957 0.029843 2.371276 -14.616358 -2.572531 -13.662434 1.778934 10.936948 34.838249 1.762080 -2.053741 4.501438 0.892400 -6.021200 -16.845900 13.138092 7.470743 -33.373931 -25.329331 -18.948389 106.087693 0.193434 -3.889903 16.609735 -0.206300 -2.924200 8.067800 -0.619618 -2.422915 5.003456 -0.877626 -0.919535 -9.043588 3.383854 1.032303 -0.130408 0.262400 0.553800 -1.568600 -80.398225 -12.725028 41.108087 123.798577 -60.616935 -92.085111 0.492534 -1.827152 -31.935059 -7.125000 0.000000 0.000000 75.623961 -20.234522 42.838444 -67.789164 57.308636 -52.232017 2.635772 1.028579 2.729965 7.125000 0.000000 0.000000 
0.583244 17.948696 -22.511523 -0.171998 0.377908 2.316181 -14.923658 -2.400043 -11.732403 1.511828 10.552297 33.764917 1.553256 -1.531148 5.545573 1.292100 -7.202300 -20.316200 12.556187 7.816252 -34.990389 -24.802118 -19.280888 104.490160 -0.011338 -2.010609 16.120658 -0.144600 -2.450500 6.752300 -0.582671 -3.054453 4.764052 -0.512400 -1.244114 -9.349426 3.291933 1.215848 0.290767 0.215300 0.652200 -1.432400 -80.590679 -13.670732 40.979705 124.062386 -60.501118 -92.272704 0.482007 -1.788328 -31.949634 -7.125000 0.000000 0.000000 75.089433 -21.435108 42.840223 -68.754581 57.765864 -53.185523 2.638055 1.068761 2.407409 7.125000 0.000000 0.000000 
0.568869 18.024844 -21.987551 -0.031391 0.746848 2.368054 -14.867225 -2.362214 -9.766017 1.194447 10.100452 32.439975 1.340723 -0.937167 7.070155 1.598900 -7.975300 -22.639000 12.351808 8.114953 -36.406742 -24.098195 -19.612149 102.378827 -0.120227 -0.450431 14.558362 -0.000200 0.082000 -0.225200 -0.405329 -3.631108 4.513380 -0.047275 -1.540734 -9.616835 3.082915 1.409285 0.632660 0.122900 0.753800 -1.319400 -80.826759 -14.462390 40.693201 124.377176 -60.342638 -92.544056 0.516524 -1.767034 -31.938232 -7.125000 0.000000 0.000000 74.593486 -22.537119 42.725711 -69.578184 58.165781 -53.996790 2.643106 1.084397 2.134424 7.125000 0.000000 0.000000 
0.554389 18.129950 -21.443266 -0.170431 1.119204 2.692337 -14.419641 -2.471305 -7.997720 0.841170 9.601416 30.917989 1.147635 -0.289412 9.177492 1.850600 -8.547600 -24.390200 12.558388 8.465003 -37.730009 -23.208587 -19.920779 99.741239 -0.174276 0.810527 11.489886 -0.434200 4.228300 -11.719800 -0.184367 -4.166908 4.282868 0.232935 -1.843249 -9.622998 2.770022 1.677280 1.150529 -0.019600 0.894800 -1.075100 -80.925552 -15.296902 40.722588 125.077552 -60.059439 -93.012608 0.516144 -1.733120 -31.573111 -7.125000 0.000000 0.000000 74.191951 -23.516497 42.507460 -70.360744 58.535775 -54.752893 2.646263 1.097523 1.785646 7.125000 0.000000 0.000000 
0.541368 18.234224 -20.892001 -0.064845 1.408764 3.126123 -14.163519 -2.615535 -6.333133 0.470858 9.055983 29.296835 1.063080 0.136729 11.795452 1.964900 -8.792600 -25.148800 12.439668 8.828729 -39.091288 -22.235881 -20.225928 96.685529 -0.235888 1.164430 11.876248 -0.309800 3.578200 -9.893000 0.064738 -4.808083 3.826231 0.681731 -2.177619 -9.738230 2.454628 2.153948 1.363409 -0.136000 1.135300 -1.080800 -81.064050 -15.365748 40.841245 126.596589 -59.477533 -93.970014 0.507386 -1.698297 -31.819445 -7.125000 0.000000 0.000000 73.323901 -24.883457 42.774039 -71.306229 59.011925 -55.664521 2.636974 1.146169 1.327231 7.125000 0.000000 0.000000 
0.532097 18.330685 -20.339591 -0.066921 1.617642 3.534363 -13.749465 -2.665937 -4.777989 0.089068 8.458922 27.520353 1.026182 0.636145 14.967015 2.100200 -9.071800 -26.020100 12.406124 9.309938 -40.280963 -21.136613 -20.476536 93.246194 -0.257304 1.000994 13.326308 -0.028500 1.088900 -2.993500 0.772192 -5.739833 3.052657 1.687991 -2.610530 -10.076218 2.372615 2.989702 1.170043 -0.035500 1.563800 -1.472200 -81.753764 -14.275915 40.190849 128.182907 -58.877064 -94.971724 0.501470 -1.648217 -32.468155 -7.125000 0.000000 0.000000 71.005585 -26.490295 44.230428 -72.366922 59.609299 -56.676501 2.605612 1.223423 0.706227 7.125000 0.000000 0.000000 
0.524597 18.433813 -19.784056 -0.089145 1.688520 3.754735 -13.304719 -2.619222 -3.163709 -0.283363 7.829504 25.635871 1.042227 1.252962 18.568402 2.026900 -8.921800 -25.551100 12.413249 9.758177 -41.004367 -19.895632 -20.633087 89.501199 -0.238311 0.855632 13.214071 -0.021400 0.944100 -2.595000 1.059342 -6.175456 3.487931 1.984198 -2.909879 -9.188425 2.148896 3.267007 1.847574 -0.047500 1.714900 -0.836300 -81.994599 -15.689854 40.207092 128.906911 -58.521703 -95.472993 0.515259 -1.621371 -32.653870 -7.125000 0.000000 0.000000 70.520596 -26.009123 43.829581 -72.909914 59.784670 -57.197829 2.592394 1.273558 -0.023162 7.125000 0.000000 0.000000 
0.514284 18.540378 -19.219875 0.054520 1.759494 3.897736 -12.989524 -2.537671 -1.428254 -0.631062 7.175638 23.679416 1.118517 1.983202 22.370316 1.988700 -8.842600 -25.304100 12.246468 10.063160 -41.458090 -18.555705 -20.707078 85.476406 -0.137129 0.261255 12.645693 -0.095700 1.994900 -5.491700 0.622775 -6.051266 3.487955 1.367151 -2.929822 -9.145835 1.537716 2.955656 2.458096 -0.498400 1.546600 -0.493000 -81.165338 -15.970613 42.308603 129.715889 -58.175403 -95.986445 0.488560 -1.558581 -31.642411 -7.125000 0.000000 0.000000 71.954402 -27.368856 41.945893 -73.332716 59.992274 -57.644827 2.620060 1.283575 -0.881638 7.125000 0.000000 0.000000 
0.502721 18.639339 -18.650172 0.116361 1.749050 4.230424 -12.491307 -2.379340 0.025462 -0.955567 6.492027 21.560208 1.260604 3.095013 26.770794 1.952100 -8.765600 -25.065000 12.157342 10.488043 -41.926089 -17.108183 -20.676775 81.220091 -0.024341 -0.310744 11.569975 -0.138400 2.398000 -6.607000 1.368828 -6.773761 2.803382 2.402115 -3.268379 -9.502034 1.490702 3.658304 2.877199 -0.353000 1.919300 -0.456500 -81.890060 -14.813820 41.030738 130.702501 -57.736461 -96.671037 0.549214 -1.548371 -35.983934 -7.125000 0.000000 0.000000 69.775157 -28.513260 43.067254 -73.516456 60.241378 -57.825710 2.614463 1.279876 -1.630385 7.125000 0.000000 0.000000 
0.494596 18.733508 -18.077449 0.062948 1.670581 4.796963 -11.906494 -2.618565 1.362943 -1.222541 5.855103 19.294673 1.273626 5.283146 31.056623 1.882400 -8.616800 -24.603600 12.148516 11.028216 -42.372846 -15.568590 -20.521463 76.718931 0.090228 -1.010938 11.281812 -0.177200 2.711400 -7.476400 1.712597 -7.041101 2.274133 2.665217 -3.437529 -9.626430 1.288233 3.909850 3.076092 -0.411700 2.050900 -0.476700 -81.998923 -14.032404 41.597574 131.573746 -57.367447 -97.190100 0.516814 -1.528401 -36.192463 -7.125000 0.000000 0.000000 69.103715 -29.929224 42.876466 -73.982169 60.559746 -58.297528 2.606501 1.315473 -1.870339 7.125000 0.000000 0.000000 
0.490013 18.814135 -17.507330 0.015315 1.636744 5.182708 -11.316270 -3.017963 2.910119 -1.385467 5.318257 16.971219 1.124095 8.730542 34.927495 1.451100 -7.614500 -21.549200 12.129245 11.333445 -42.516649 -13.969277 -20.231648 72.050586 0.225652 -1.859243 11.337988 -0.203800 2.906700 -8.019100 1.876664 -7.229270 1.838749 2.662090 -3.584980 -9.819954 0.936875 4.037096 3.311265 -0.590400 2.116000 -0.452300 -81.779190 -13.474340 42.506739 132.307792 -57.031718 -97.662009 0.515023 -1.495216 -36.340630 -7.125000 0.000000 0.000000 68.746297 -31.554903 42.335113 -74.950345 61.062752 -59.208761 2.596332 1.336558 -2.053801 7.125000 0.000000 0.000000 
0.485117 18.892887 -16.928982 -0.220407 1.349058 5.532797 -10.660127 -3.138109 4.404039 -1.506184 4.805435 14.560277 1.041628 12.602009 38.376926 0.797200 -5.699000 -15.913700 12.307339 11.786050 -42.432683 -12.291772 -19.771294 67.160778 0.407506 -2.879364 11.248607 -0.265200 3.313000 -9.151300 1.834702 -7.265574 2.460774 2.139810 -3.788310 -8.114160 0.697578 4.210997 3.015638 -0.740700 2.189500 -0.514200 -81.040802 -14.564701 43.189399 132.739207 -56.776746 -97.937523 0.490746 -1.487673 -36.571283 -7.125000 0.000000 0.000000 69.492911 -31.607318 41.232352 -75.323965 61.168480 -59.547829 2.595728 1.342763 -2.197676 7.125000 0.000000 0.000000 
0.485013 18.978097 -16.345321 -0.428857 0.894632 5.938745 -10.121500 -3.099626 5.843167 -1.661604 4.255661 12.047605 1.189863 16.303918 41.557484 0.670300 -5.235400 -14.581200 12.372376 12.330320 -42.133702 -10.562722 -19.126071 62.044739 0.625661 -4.071994 11.421849 -0.245700 3.189500 -8.806700 2.019996 -7.244651 2.120077 1.996632 -3.853088 -8.162390 0.420021 4.516493 3.465498 -0.874700 2.347800 -0.361600 -80.744392 -14.054296 43.977057 133.184808 -56.549596 -98.238318 0.501499 -1.488836 -36.359528 -7.125000 0.000000 0.000000 69.345999 -32.885290 40.656048 -75.797274 61.455979 -59.979960 2.592921 1.343103 -2.317824 7.125000 0.000000 0.000000 
